<svg width="30" height="30" viewBox="0 0 30 30" fill="none" xmlns="http://www.w3.org/2000/svg">
<path d="M13.725 2.24814L3.77437 8.46377H2.8125C2.29688 8.46377 1.875 8.88564 1.875 9.40127C1.875 9.91689 2.29688 10.3378 2.81156 10.3388V12.2138C2.29594 12.2138 1.875 12.6356 1.875 13.1513C1.875 13.6669 2.29688 14.0888 2.8125 14.0888H3.75V23.4638C3.49059 23.4737 3.2451 23.5837 3.06507 23.7708C2.88503 23.9578 2.78443 24.2073 2.78438 24.4669V25.3388H2.87812C2.325 25.3388 1.875 25.7888 1.875 26.3419V27.2138H28.1156V26.3419C28.1156 25.7888 27.6656 25.3388 27.1125 25.3388H27.1875V24.4669C27.1876 24.2122 27.0907 23.9669 26.9166 23.781C26.7425 23.5951 26.5042 23.4823 26.25 23.4656V14.0878H27.1875C27.7031 14.0878 28.125 13.666 28.125 13.1503C28.125 12.6347 27.7031 12.2128 27.1875 12.2128L27.1866 10.3378C27.7022 10.3378 28.125 9.91596 28.125 9.40033C28.125 8.88471 27.7031 8.46283 27.1875 8.46283H26.2631L16.3125 2.24814C15.525 1.75127 14.5125 1.75127 13.725 2.24814ZM14.5312 9.92627V9.42002C14.3923 9.4013 14.2567 9.36344 14.1281 9.30752C13.8656 9.21377 13.65 9.04502 13.4812 8.82002C13.4272 8.74357 13.4007 8.651 13.4062 8.55752C13.4062 8.52471 13.4091 8.49377 13.4156 8.46377C13.4429 8.3483 13.5133 8.24766 13.6125 8.18252C13.8094 8.06064 14.025 8.08877 14.2031 8.26689C14.2971 8.36959 14.4081 8.45523 14.5312 8.52002C14.5359 8.52471 14.5425 8.52658 14.55 8.52939H14.5538C14.7061 8.59688 14.8709 8.63169 15.0375 8.63158C15.2944 8.62033 15.3872 8.53971 15.4219 8.46283C15.4406 8.41971 15.4406 8.37846 15.4406 8.35033C15.4406 8.26596 15.4031 8.20033 15.3188 8.15346C15.2156 8.09721 15.0375 8.03158 14.8125 7.97533C14.718 7.9498 14.6242 7.92166 14.5312 7.89096L14.4375 7.85908C14.3512 7.83153 14.2666 7.79865 14.1844 7.76064C14.0063 7.68564 13.8562 7.57314 13.7344 7.41377C13.6031 7.25439 13.5375 7.04814 13.5375 6.78564C13.5375 6.55127 13.6031 6.35439 13.7437 6.17627C13.8656 6.00752 14.0344 5.88564 14.25 5.79189C14.3438 5.75439 14.4375 5.71689 14.5312 5.69814V5.13564C14.5312 4.91064 14.7188 4.71377 14.9531 4.71377H15.0188C15.2531 4.71377 15.4406 4.91064 15.4406 5.13564V5.73564C15.4856 5.74221 15.525 5.75627 15.5662 5.77033L15.6 5.78252C15.8344 5.87627 16.0312 6.00752 16.1625 6.18564C16.2375 6.27002 16.2656 6.37314 16.2656 6.47627C16.2656 6.60752 16.2188 6.72002 16.1063 6.80439C15.9375 6.94502 15.675 6.92627 15.525 6.77627C15.4993 6.7487 15.471 6.72359 15.4406 6.70127C15.3881 6.647 15.324 6.60533 15.2531 6.57939C15.1362 6.52404 15.0074 6.49828 14.8781 6.50439C14.6719 6.50439 14.5781 6.55127 14.5312 6.60752C14.4937 6.65439 14.4937 6.71064 14.4937 6.74814C14.4937 6.79502 14.5031 6.84189 14.5312 6.87939C14.5312 6.88877 14.5406 6.89814 14.55 6.90752C14.6063 6.95439 14.6625 6.99189 14.7469 7.02002C14.8312 7.04814 14.9625 7.08564 15.1312 7.13252C15.2109 7.15877 15.2859 7.18033 15.3562 7.20096L15.4406 7.22627C15.5531 7.26377 15.6469 7.30127 15.7313 7.33877C15.9 7.42314 16.05 7.53564 16.1625 7.69502C16.2844 7.85439 16.35 8.06064 16.35 8.32314C16.3517 8.54809 16.2755 8.7667 16.1344 8.94189C15.9974 9.11523 15.816 9.24809 15.6094 9.32627C15.5531 9.35439 15.4969 9.37315 15.4406 9.38252V9.92627C15.4406 10.1278 15.2906 10.2985 15.09 10.3322H14.8819C14.7848 10.3167 14.6963 10.2674 14.6322 10.1929C14.568 10.1184 14.5322 10.0236 14.5312 9.92533M19.5825 8.46283C19.7512 7.63877 19.6965 6.78457 19.4241 5.98877L23.4084 8.46283H19.5825ZM10.5159 6.05627C10.2618 6.83324 10.2149 7.66312 10.38 8.46377H6.63937L10.5159 6.05627ZM7.5 23.4638H6.5625V14.0888H7.5V23.4638ZM12.1875 23.4638H10.3125V14.0888H19.6875V23.4638H17.8125V17.5013C17.8125 17.1731 17.5406 16.9013 17.2125 16.9013H12.7781C12.45 16.9013 12.1875 17.1638 12.1875 17.4919V23.4638ZM22.5 14.0888H23.4375V23.4638H22.5V14.0888Z" fill="white"/>
</svg>
