<svg width="40" height="40" viewBox="0 0 40 40" fill="none" xmlns="http://www.w3.org/2000/svg">
<path d="M15.292 22.292C15.3849 22.1989 15.4952 22.125 15.6167 22.0746C15.7382 22.0242 15.8685 21.9982 16 21.9982C16.1315 21.9982 16.2618 22.0242 16.3833 22.0746C16.5048 22.125 16.6151 22.1989 16.708 22.292L20 25.586L23.292 22.292C23.4798 22.1042 23.7344 21.9987 24 21.9987C24.2656 21.9987 24.5202 22.1042 24.708 22.292C24.8958 22.4798 25.0013 22.7344 25.0013 23C25.0013 23.2656 24.8958 23.5202 24.708 23.708L20.708 27.708C20.6151 27.8011 20.5048 27.875 20.3833 27.9254C20.2618 27.9758 20.1315 28.0018 20 28.0018C19.8685 28.0018 19.7382 27.9758 19.6167 27.9254C19.4952 27.875 19.3849 27.8011 19.292 27.708L15.292 23.708C15.1989 23.6151 15.125 23.5048 15.0746 23.3833C15.0242 23.2618 14.9982 23.1315 14.9982 23C14.9982 22.8685 15.0242 22.7382 15.0746 22.6167C15.125 22.4952 15.1989 22.3849 15.292 22.292ZM23.292 17.708C23.4798 17.8958 23.7344 18.0013 24 18.0013C24.2656 18.0013 24.5202 17.8958 24.708 17.708C24.8958 17.5202 25.0013 17.2656 25.0013 17C25.0013 16.7344 24.8958 16.4798 24.708 16.292L20.708 12.292C20.6151 12.1989 20.5048 12.125 20.3833 12.0746C20.2618 12.0242 20.1315 11.9982 20 11.9982C19.8685 11.9982 19.7382 12.0242 19.6167 12.0746C19.4952 12.125 19.3849 12.1989 19.292 12.292L15.292 16.292C15.199 16.385 15.1253 16.4954 15.075 16.6168C15.0246 16.7383 14.9987 16.8685 14.9987 17C14.9987 17.1315 15.0246 17.2617 15.075 17.3832C15.1253 17.5046 15.199 17.615 15.292 17.708C15.385 17.801 15.4954 17.8747 15.6168 17.925C15.7383 17.9754 15.8685 18.0013 16 18.0013C16.1315 18.0013 16.2617 17.9754 16.3832 17.925C16.5046 17.8747 16.615 17.801 16.708 17.708L20 14.414L23.292 17.708ZM10 7C10 6.20435 10.3161 5.44129 10.8787 4.87868C11.4413 4.31607 12.2044 4 13 4H27C27.7956 4 28.5587 4.31607 29.1213 4.87868C29.6839 5.44129 30 6.20435 30 7V33C30 33.7956 29.6839 34.5587 29.1213 35.1213C28.5587 35.6839 27.7956 36 27 36H13C12.2044 36 11.4413 35.6839 10.8787 35.1213C10.3161 34.5587 10 33.7956 10 33V7ZM13 6C12.7348 6 12.4804 6.10536 12.2929 6.29289C12.1054 6.48043 12 6.73478 12 7V33C12 33.2652 12.1054 33.5196 12.2929 33.7071C12.4804 33.8946 12.7348 34 13 34H27C27.2652 34 27.5196 33.8946 27.7071 33.7071C27.8946 33.5196 28 33.2652 28 33V7C28 6.73478 27.8946 6.48043 27.7071 6.29289C27.5196 6.10536 27.2652 6 27 6H13Z" fill="black"/>
</svg>
