<svg width="16" height="17" viewBox="0 0 16 17" fill="none" xmlns="http://www.w3.org/2000/svg">
<path d="M2.66699 6.5H4.00033V2.5H5.33366L7.61366 6.5H10.667V2.5H12.0003V6.5H13.3337V7.83333H12.0003V9.16667H13.3337V10.5H12.0003V14.5H10.667L8.38033 10.5H5.33366V14.5H4.00033V10.5H2.66699V9.16667H4.00033V7.83333H2.66699V6.5ZM5.33366 6.5H6.08699L5.33366 5.18667V6.5ZM5.33366 7.83333V9.16667H7.61366L6.85366 7.83333H5.33366ZM10.667 11.8333V10.5H9.90033L10.667 11.8333ZM8.37366 7.83333L9.14033 9.16667H10.667V7.83333H8.37366Z" fill="#25282B"/>
</svg>
