<svg width="30" height="30" viewBox="0 0 30 30" fill="none" xmlns="http://www.w3.org/2000/svg">
<path d="M23.75 5C24.413 5 25.0489 5.26339 25.5178 5.73223C25.9866 6.20107 26.25 6.83696 26.25 7.5V10.335C26.63 10.5544 26.9456 10.87 27.165 11.25C27.3845 11.6301 27.5 12.0612 27.5 12.5V17.5C27.5 17.9388 27.3845 18.3699 27.165 18.75C26.9456 19.13 26.63 19.4456 26.25 19.665V22.5C26.25 23.163 25.9866 23.7989 25.5178 24.2678C25.0489 24.7366 24.413 25 23.75 25H6.25C5.58696 25 4.95107 24.7366 4.48223 24.2678C4.01339 23.7989 3.75 23.163 3.75 22.5V7.5C3.75 6.83696 4.01339 6.20107 4.48223 5.73223C4.95107 5.26339 5.58696 5 6.25 5H23.75ZM23.75 7.5H6.25V22.5H23.75V20H18.75C17.4456 20 16.1928 19.4903 15.2589 18.5795C14.3251 17.6687 13.7841 16.4291 13.7515 15.125C13.7189 13.821 14.1972 12.5559 15.0843 11.5995C15.9714 10.6432 17.1972 10.0715 18.5 10.0063L18.75 10H23.75V7.5ZM25 12.5H18.75C18.087 12.5 17.4511 12.7634 16.9822 13.2322C16.5134 13.7011 16.25 14.337 16.25 15C16.25 15.663 16.5134 16.2989 16.9822 16.7678C17.4511 17.2366 18.087 17.5 18.75 17.5H25V12.5ZM20 13.75C20.3315 13.75 20.6495 13.8817 20.8839 14.1161C21.1183 14.3505 21.25 14.6685 21.25 15C21.25 15.3315 21.1183 15.6495 20.8839 15.8839C20.6495 16.1183 20.3315 16.25 20 16.25C19.6685 16.25 19.3505 16.1183 19.1161 15.8839C18.8817 15.6495 18.75 15.3315 18.75 15C18.75 14.6685 18.8817 14.3505 19.1161 14.1161C19.3505 13.8817 19.6685 13.75 20 13.75Z" fill="white"/>
</svg>
