<svg width="30" height="30" viewBox="0 0 30 30" fill="none" xmlns="http://www.w3.org/2000/svg">
<path fill-rule="evenodd" clip-rule="evenodd" d="M5.6 1H5.5C5.042 1 4.648 1 4.3 1.082C3.76127 1.21073 3.2687 1.48609 2.87686 1.87758C2.48502 2.26906 2.20922 2.76139 2.08 3.3C2 3.648 2 4.04 2 4.5V9.5C2 9.958 2 10.352 2.082 10.7C2.21073 11.2387 2.48609 11.7313 2.87758 12.1231C3.26906 12.515 3.76139 12.7908 4.3 12.92C4.648 13 5.04 13 5.5 13H10.5C10.958 13 11.352 13 11.7 12.918C12.2387 12.7893 12.7313 12.5139 13.1231 12.1224C13.515 11.7309 13.7908 11.2386 13.92 10.7C14 10.352 14 9.96 14 9.5V4.5C14 4.042 14 3.648 13.918 3.3C13.7893 2.76127 13.5139 2.2687 13.1224 1.87686C12.7309 1.48502 12.2386 1.20922 11.7 1.08C11.352 1 10.96 1 10.5 1H10.4H5.6ZM4.766 3.028C4.852 3.008 4.986 3 5.6 3H10.4C11.016 3 11.148 3.006 11.234 3.028C11.4137 3.07096 11.5779 3.16285 11.7085 3.29347C11.8391 3.42409 11.931 3.58834 11.974 3.768C11.994 3.852 12 3.984 12 4.6V9.4C12 10.016 11.994 10.148 11.972 10.234C11.929 10.4137 11.8371 10.5779 11.7065 10.7085C11.5759 10.8391 11.4117 10.931 11.232 10.974C11.15 10.992 11.018 11 10.4 11H5.6C4.984 11 4.852 10.994 4.766 10.972C4.58634 10.929 4.42209 10.8371 4.29147 10.7065C4.16085 10.5759 4.06896 10.4117 4.026 10.232C4.008 10.15 4 10.018 4 9.4V4.6C4 3.984 4.006 3.852 4.028 3.766C4.07096 3.58634 4.16285 3.42209 4.29347 3.29147C4.42409 3.16085 4.58834 3.06896 4.768 3.026M19.6 1H19.5C19.042 1 18.648 1 18.3 1.082C17.7613 1.21073 17.2687 1.48609 16.8769 1.87758C16.485 2.26906 16.2092 2.76139 16.08 3.3C16 3.648 16 4.04 16 4.5V9.5C16 9.958 16 10.352 16.082 10.7C16.2107 11.2387 16.4861 11.7313 16.8776 12.1231C17.2691 12.515 17.7614 12.7908 18.3 12.92C18.648 13 19.04 13 19.5 13H24.5C24.958 13 25.352 13 25.7 12.918C26.2387 12.7893 26.7313 12.5139 27.1231 12.1224C27.515 11.7309 27.7908 11.2386 27.92 10.7C28 10.352 28 9.96 28 9.5V4.5C28 4.042 28 3.648 27.918 3.3C27.7893 2.76127 27.5139 2.2687 27.1224 1.87686C26.7309 1.48502 26.2386 1.20922 25.7 1.08C25.352 1 24.96 1 24.5 1H24.4H19.6ZM18.766 3.028C18.852 3.008 18.986 3 19.6 3H24.4C25.016 3 25.148 3.006 25.234 3.028C25.4137 3.07096 25.5779 3.16285 25.7085 3.29347C25.8391 3.42409 25.931 3.58834 25.974 3.768C25.994 3.852 26 3.984 26 4.6V9.4C26 10.016 25.992 10.148 25.972 10.234C25.929 10.4137 25.8372 10.5779 25.7065 10.7085C25.5759 10.8391 25.4117 10.931 25.232 10.974C25.148 10.994 25.016 11 24.4 11H19.6C18.984 11 18.852 10.994 18.766 10.972C18.5863 10.929 18.4221 10.8371 18.2915 10.7065C18.1609 10.5759 18.069 10.4117 18.026 10.232C18.008 10.15 18 10.018 18 9.4V4.6C18 3.984 18.006 3.852 18.028 3.766C18.071 3.58634 18.1628 3.42209 18.2935 3.29147C18.4241 3.16085 18.5883 3.06896 18.768 3.026M5.5 15H10.5C10.958 15 11.352 15 11.7 15.082C12.2387 15.2107 12.7313 15.4861 13.1231 15.8776C13.515 16.2691 13.7908 16.7614 13.92 17.3C14 17.648 14 18.04 14 18.5V23.5C14 23.958 14 24.352 13.918 24.7C13.7893 25.2387 13.5139 25.7313 13.1224 26.1231C12.7309 26.515 12.2386 26.7908 11.7 26.92C11.352 27 10.96 27 10.5 27H5.5C5.042 27 4.648 27 4.3 26.918C3.76127 26.7893 3.2687 26.5139 2.87686 26.1224C2.48502 25.7309 2.20922 25.2386 2.08 24.7C2 24.352 2 23.96 2 23.5V18.5C2 18.042 2 17.648 2.082 17.3C2.21073 16.7613 2.48609 16.2687 2.87758 15.8769C3.26906 15.485 3.76139 15.2092 4.3 15.08C4.648 15 5.04 15 5.5 15ZM5.6 17C4.984 17 4.852 17.006 4.766 17.028C4.58634 17.071 4.42209 17.1628 4.29147 17.2935C4.16085 17.4241 4.06896 17.5883 4.026 17.768C4.008 17.85 4 17.982 4 18.6V23.4C4 24.016 4.006 24.148 4.028 24.234C4.07096 24.4137 4.16285 24.5779 4.29347 24.7085C4.42409 24.8391 4.58834 24.931 4.768 24.974C4.852 24.994 4.984 25 5.6 25H10.4C11.016 25 11.148 24.992 11.234 24.972C11.4137 24.929 11.5779 24.8372 11.7085 24.7065C11.8391 24.5759 11.931 24.4117 11.974 24.232C11.994 24.148 12 24.016 12 23.4V18.6C12 17.984 11.994 17.852 11.972 17.766C11.929 17.5863 11.8371 17.4221 11.7065 17.2915C11.5759 17.1609 11.4117 17.069 11.232 17.026C11.15 17.008 11.018 17 10.4 17H5.6ZM19.6 15H19.5C19.042 15 18.648 15 18.3 15.082C17.7613 15.2107 17.2687 15.4861 16.8769 15.8776C16.485 16.2691 16.2092 16.7614 16.08 17.3C16 17.648 16 18.04 16 18.5V23.5C16 23.958 16 24.352 16.082 24.7C16.2107 25.2387 16.4861 25.7313 16.8776 26.1231C17.2691 26.515 17.7614 26.7908 18.3 26.92C18.648 27.002 19.042 27.002 19.5 27.002H24.5C24.958 27.002 25.352 27.002 25.7 26.92C26.2384 26.7909 26.7305 26.5154 27.122 26.124C27.5134 25.7325 27.7889 25.2404 27.918 24.702C28 24.354 28 23.96 28 23.502V18.5C28 18.042 28 17.648 27.918 17.3C27.7893 16.7613 27.5139 16.2687 27.1224 15.8769C26.7309 15.485 26.2386 15.2092 25.7 15.08C25.352 15 24.96 15 24.5 15H24.4H19.6ZM18.766 17.028C18.852 17.008 18.986 17 19.6 17H24.4C25.016 17 25.148 17.006 25.234 17.028C25.4137 17.071 25.5779 17.1628 25.7085 17.2935C25.8391 17.4241 25.931 17.5883 25.974 17.768C25.994 17.852 26 17.984 26 18.6V23.4C26 24.016 25.992 24.148 25.972 24.234C25.929 24.4137 25.8372 24.5779 25.7065 24.7085C25.5759 24.8391 25.4117 24.931 25.232 24.974C25.148 24.994 25.016 25 24.4 25H19.6C18.984 25 18.852 24.992 18.766 24.972C18.5863 24.929 18.4221 24.8372 18.2915 24.7065C18.1609 24.5759 18.069 24.4117 18.026 24.232C18.008 24.15 18 24.018 18 23.4V18.6C18 17.984 18.006 17.852 18.028 17.766C18.071 17.5863 18.1628 17.4221 18.2935 17.2915C18.4241 17.1609 18.5883 17.069 18.768 17.026" fill="white"/>
</svg>
