<svg width="23" height="28" viewBox="0 0 23 28" fill="none" xmlns="http://www.w3.org/2000/svg">
<path d="M22.5 22.125V23.375H0V22.125L2.5 19.625V12.125C2.5 8.25 5.0375 4.8375 8.75 3.7375V3.375C8.75 2.71196 9.01339 2.07607 9.48223 1.60723C9.95107 1.13839 10.587 0.875 11.25 0.875C11.913 0.875 12.5489 1.13839 13.0178 1.60723C13.4866 2.07607 13.75 2.71196 13.75 3.375V3.7375C17.4625 4.8375 20 8.25 20 12.125V19.625L22.5 22.125ZM13.75 24.625C13.75 25.288 13.4866 25.9239 13.0178 26.3928C12.5489 26.8616 11.913 27.125 11.25 27.125C10.587 27.125 9.95107 26.8616 9.48223 26.3928C9.01339 25.9239 8.75 25.288 8.75 24.625" fill="black"/>
</svg>
